<svg width="36" height="37" viewBox="0 0 36 37" fill="none" xmlns="http://www.w3.org/2000/svg">
<path d="M13.5 14.4002L14.125 24.4002C14.1547 24.978 14.575 25.4002 15.125 25.4002H20.875C21.4272 25.4002 21.8397 24.978 21.875 24.4002L22.5 14.4002" stroke="black" stroke-linecap="round" stroke-linejoin="round"/>
<path d="M12.5 14.4002H23.5H12.5Z" fill="black"/>
<path d="M12.5 14.4002H23.5" stroke="black" stroke-miterlimit="10" stroke-linecap="round"/>
<path d="M20.25 16.4002L20 23.4002M16 14.4002V13.1502C15.9997 13.0516 16.0189 12.954 16.0565 12.8629C16.0941 12.7717 16.1493 12.6889 16.219 12.6192C16.2887 12.5495 16.3715 12.4943 16.4626 12.4567C16.5538 12.4191 16.6514 12.3999 16.75 12.4002H19.25C19.3486 12.3999 19.4462 12.4191 19.5374 12.4567C19.6285 12.4943 19.7113 12.5495 19.781 12.6192C19.8507 12.6889 19.9059 12.7717 19.9435 12.8629C19.9811 12.954 20.0003 13.0516 20 13.1502V14.4002H16ZM18 16.4002V23.4002V16.4002ZM15.75 16.4002L16 23.4002L15.75 16.4002Z" stroke="black" stroke-linecap="round" stroke-linejoin="round"/>
</svg>
